<?xml version="1.0" encoding="UTF-8"?>
<svg xmlns="http://www.w3.org/2000/svg" xmlns:xlink="http://www.w3.org/1999/xlink" width="3302.01" height="2524.51" viewBox="0 0 3302.01 2524.51">
<defs>
<clipPath id="clip-0">
<path clip-rule="nonzero" d="M 1695 466 L 2133 466 L 2133 1051 L 1695 1051 Z M 1695 466 "/>
</clipPath>
<clipPath id="clip-1">
<path clip-rule="evenodd" d="M 1695.050781 1050.230469 L 2132.390625 853.679688 L 2132.390625 662.699219 L 1695.050781 466.128906 L 1695.050781 1050.230469 "/>
</clipPath>
<linearGradient id="linear-pattern-0" gradientUnits="userSpaceOnUse" x1="0.168261" y1="0" x2="0.83174" y2="0" gradientTransform="matrix(-0.00003848, -880.359, 880.359, -0.00003848, 1913.72, 1198.36)">
<stop offset="0" stop-color="rgb(67.10968%, 66.456604%, 66.848755%)" stop-opacity="1"/>
<stop offset="0.0625" stop-color="rgb(66.921997%, 66.285706%, 66.677856%)" stop-opacity="1"/>
<stop offset="0.125" stop-color="rgb(66.546631%, 65.943909%, 66.33606%)" stop-opacity="1"/>
<stop offset="0.1875" stop-color="rgb(66.172791%, 65.602112%, 65.994263%)" stop-opacity="1"/>
<stop offset="0.25" stop-color="rgb(65.79895%, 65.261841%, 65.653992%)" stop-opacity="1"/>
<stop offset="0.3125" stop-color="rgb(65.42511%, 64.920044%, 65.312195%)" stop-opacity="1"/>
<stop offset="0.375" stop-color="rgb(65.05127%, 64.578247%, 64.970398%)" stop-opacity="1"/>
<stop offset="0.4375" stop-color="rgb(64.677429%, 64.23645%, 64.628601%)" stop-opacity="1"/>
<stop offset="0.5" stop-color="rgb(64.303589%, 63.894653%, 64.286804%)" stop-opacity="1"/>
<stop offset="0.5625" stop-color="rgb(63.929749%, 63.554382%, 63.946533%)" stop-opacity="1"/>
<stop offset="0.625" stop-color="rgb(63.555908%, 63.212585%, 63.604736%)" stop-opacity="1"/>
<stop offset="0.6875" stop-color="rgb(63.180542%, 62.870789%, 63.262939%)" stop-opacity="1"/>
<stop offset="0.75" stop-color="rgb(62.806702%, 62.528992%, 62.921143%)" stop-opacity="1"/>
<stop offset="0.8125" stop-color="rgb(62.432861%, 62.187195%, 62.579346%)" stop-opacity="1"/>
<stop offset="0.875" stop-color="rgb(62.059021%, 61.846924%, 62.239075%)" stop-opacity="1"/>
<stop offset="0.9375" stop-color="rgb(61.685181%, 61.505127%, 61.897278%)" stop-opacity="1"/>
<stop offset="1" stop-color="rgb(61.31134%, 61.16333%, 61.555481%)" stop-opacity="1"/>
</linearGradient>
<clipPath id="clip-2">
<path clip-rule="nonzero" d="M 1169 466 L 1608 466 L 1608 1051 L 1169 1051 Z M 1169 466 "/>
</clipPath>
<clipPath id="clip-3">
<path clip-rule="evenodd" d="M 1607.078125 1050.261719 L 1607.078125 466.121094 L 1169.699219 662.699219 L 1169.699219 853.679688 L 1607.078125 1050.261719 "/>
</clipPath>
<linearGradient id="linear-pattern-1" gradientUnits="userSpaceOnUse" x1="0.168261" y1="0" x2="0.831742" y2="0" gradientTransform="matrix(-0.00003848, -880.417, 880.417, -0.00003848, 1388.39, 1198.4)">
<stop offset="0" stop-color="rgb(67.10968%, 66.456604%, 66.848755%)" stop-opacity="1"/>
<stop offset="0.0625" stop-color="rgb(66.921997%, 66.285706%, 66.677856%)" stop-opacity="1"/>
<stop offset="0.125" stop-color="rgb(66.546631%, 65.943909%, 66.33606%)" stop-opacity="1"/>
<stop offset="0.1875" stop-color="rgb(66.172791%, 65.602112%, 65.994263%)" stop-opacity="1"/>
<stop offset="0.25" stop-color="rgb(65.79895%, 65.261841%, 65.653992%)" stop-opacity="1"/>
<stop offset="0.3125" stop-color="rgb(65.42511%, 64.920044%, 65.312195%)" stop-opacity="1"/>
<stop offset="0.375" stop-color="rgb(65.05127%, 64.578247%, 64.970398%)" stop-opacity="1"/>
<stop offset="0.4375" stop-color="rgb(64.677429%, 64.23645%, 64.628601%)" stop-opacity="1"/>
<stop offset="0.5" stop-color="rgb(64.303589%, 63.894653%, 64.286804%)" stop-opacity="1"/>
<stop offset="0.5625" stop-color="rgb(63.929749%, 63.554382%, 63.946533%)" stop-opacity="1"/>
<stop offset="0.625" stop-color="rgb(63.555908%, 63.212585%, 63.604736%)" stop-opacity="1"/>
<stop offset="0.6875" stop-color="rgb(63.180542%, 62.870789%, 63.262939%)" stop-opacity="1"/>
<stop offset="0.75" stop-color="rgb(62.806702%, 62.528992%, 62.921143%)" stop-opacity="1"/>
<stop offset="0.8125" stop-color="rgb(62.432861%, 62.187195%, 62.579346%)" stop-opacity="1"/>
<stop offset="0.875" stop-color="rgb(62.059021%, 61.846924%, 62.239075%)" stop-opacity="1"/>
<stop offset="0.9375" stop-color="rgb(61.685181%, 61.505127%, 61.897278%)" stop-opacity="1"/>
<stop offset="1" stop-color="rgb(61.31134%, 61.16333%, 61.555481%)" stop-opacity="1"/>
</linearGradient>
<clipPath id="clip-4">
<path clip-rule="nonzero" d="M 1191 87 L 2111 87 L 2111 557 L 1191 557 Z M 1191 87 "/>
</clipPath>
<clipPath id="clip-5">
<path clip-rule="evenodd" d="M 1669.070312 358.019531 L 2110.429688 556.421875 L 2110.429688 477.851562 C 2110.429688 262.878906 1935.53125 87.980469 1720.550781 87.980469 L 1695.019531 87.980469 L 1695.019531 252.460938 C 1695.050781 310.351562 1607.039062 310.378906 1607.039062 252.460938 L 1607.039062 87.980469 L 1581.5 87.980469 C 1366.550781 87.980469 1191.660156 262.851562 1191.660156 477.851562 L 1191.660156 556.390625 L 1631.328125 358.78125 C 1643.671875 352.921875 1656.78125 352.488281 1669.070312 358.019531 "/>
</clipPath>
<linearGradient id="linear-pattern-2" gradientUnits="userSpaceOnUse" x1="0.437832" y1="0" x2="0.562141" y2="0" gradientTransform="matrix(-0.000164719, -3768.34, 3768.34, -0.000164719, 1651.05, 2206.32)">
<stop offset="0" stop-color="rgb(85.339355%, 85.388184%, 85.166931%)" stop-opacity="1"/>
<stop offset="0.25" stop-color="rgb(85.180664%, 85.217285%, 85.002136%)" stop-opacity="1"/>
<stop offset="0.5" stop-color="rgb(84.863281%, 84.875488%, 84.674072%)" stop-opacity="1"/>
<stop offset="0.75" stop-color="rgb(84.545898%, 84.533691%, 84.344482%)" stop-opacity="1"/>
<stop offset="1" stop-color="rgb(84.230042%, 84.19342%, 84.014893%)" stop-opacity="1"/>
</linearGradient>
<clipPath id="clip-6">
<path clip-rule="nonzero" d="M 1191 959 L 2111 959 L 2111 1394 L 1191 1394 Z M 1191 959 "/>
</clipPath>
<clipPath id="clip-7">
<path clip-rule="evenodd" d="M 2110.410156 959.96875 L 1666.019531 1159.601562 C 1659 1163.980469 1641.859375 1162.390625 1632.210938 1157.988281 L 1191.671875 959.980469 L 1191.671875 1128.398438 L 1328.089844 1207.171875 L 1331.269531 1209.011719 L 1651.03125 1393.628906 L 2110.410156 1128.410156 L 2110.410156 959.96875 "/>
</clipPath>
<linearGradient id="linear-pattern-3" gradientUnits="userSpaceOnUse" x1="0.23311" y1="0" x2="0.766935" y2="0" gradientTransform="matrix(-0.00003551, -812.363, 812.363, -0.00003551, 1651.04, 1583)">
<stop offset="0" stop-color="rgb(87.426758%, 87.635803%, 87.335205%)" stop-opacity="1"/>
<stop offset="0.0625" stop-color="rgb(87.255859%, 87.452698%, 87.158203%)" stop-opacity="1"/>
<stop offset="0.125" stop-color="rgb(86.915588%, 87.086487%, 86.804199%)" stop-opacity="1"/>
<stop offset="0.1875" stop-color="rgb(86.575317%, 86.720276%, 86.451721%)" stop-opacity="1"/>
<stop offset="0.25" stop-color="rgb(86.235046%, 86.354065%, 86.097717%)" stop-opacity="1"/>
<stop offset="0.3125" stop-color="rgb(85.894775%, 85.986328%, 85.745239%)" stop-opacity="1"/>
<stop offset="0.375" stop-color="rgb(85.554504%, 85.620117%, 85.391235%)" stop-opacity="1"/>
<stop offset="0.4375" stop-color="rgb(85.214233%, 85.253906%, 85.038757%)" stop-opacity="1"/>
<stop offset="0.5" stop-color="rgb(84.873962%, 84.887695%, 84.684753%)" stop-opacity="1"/>
<stop offset="0.5625" stop-color="rgb(84.533691%, 84.521484%, 84.332275%)" stop-opacity="1"/>
<stop offset="0.625" stop-color="rgb(84.19342%, 84.155273%, 83.978271%)" stop-opacity="1"/>
<stop offset="0.6875" stop-color="rgb(83.853149%, 83.789062%, 83.625793%)" stop-opacity="1"/>
<stop offset="0.75" stop-color="rgb(83.512878%, 83.422852%, 83.27179%)" stop-opacity="1"/>
<stop offset="0.8125" stop-color="rgb(83.172607%, 83.056641%, 82.919312%)" stop-opacity="1"/>
<stop offset="0.875" stop-color="rgb(82.833862%, 82.69043%, 82.565308%)" stop-opacity="1"/>
<stop offset="0.9375" stop-color="rgb(82.493591%, 82.324219%, 82.21283%)" stop-opacity="1"/>
<stop offset="1" stop-color="rgb(82.15332%, 81.956482%, 81.858826%)" stop-opacity="1"/>
</linearGradient>
<clipPath id="clip-8">
<path clip-rule="nonzero" d="M 1379 1338 L 1922 1338 L 1922 1681 L 1379 1681 Z M 1379 1338 "/>
</clipPath>
<clipPath id="clip-9">
<path clip-rule="evenodd" d="M 1921.660156 1338.96875 L 1673.039062 1482.511719 C 1659.460938 1490.328125 1642.648438 1490.359375 1629.03125 1482.511719 L 1379.421875 1338.359375 L 1405.871094 1583.261719 C 1462.941406 1626.289062 1691.96875 1776.261719 1895.871094 1585.890625 L 1921.660156 1338.96875 "/>
</clipPath>
<linearGradient id="linear-pattern-4" gradientUnits="userSpaceOnUse" x1="0.0628857" y1="0" x2="0.779638" y2="0" gradientTransform="matrix(-0.00002671, -610.95, 610.95, -0.00002671, 1650.54, 1814.68)">
<stop offset="0" stop-color="rgb(68.058777%, 67.324829%, 67.71698%)" stop-opacity="1"/>
<stop offset="0.03125" stop-color="rgb(67.958069%, 67.23175%, 67.623901%)" stop-opacity="1"/>
<stop offset="0.0625" stop-color="rgb(67.756653%, 67.047119%, 67.43927%)" stop-opacity="1"/>
<stop offset="0.09375" stop-color="rgb(67.553711%, 66.862488%, 67.254639%)" stop-opacity="1"/>
<stop offset="0.125" stop-color="rgb(67.352295%, 66.677856%, 67.070007%)" stop-opacity="1"/>
<stop offset="0.15625" stop-color="rgb(67.149353%, 66.493225%, 66.885376%)" stop-opacity="1"/>
<stop offset="0.1875" stop-color="rgb(66.947937%, 66.308594%, 66.700745%)" stop-opacity="1"/>
<stop offset="0.21875" stop-color="rgb(66.746521%, 66.125488%, 66.517639%)" stop-opacity="1"/>
<stop offset="0.25" stop-color="rgb(66.543579%, 65.940857%, 66.333008%)" stop-opacity="1"/>
<stop offset="0.28125" stop-color="rgb(66.342163%, 65.756226%, 66.148376%)" stop-opacity="1"/>
<stop offset="0.3125" stop-color="rgb(66.139221%, 65.571594%, 65.963745%)" stop-opacity="1"/>
<stop offset="0.34375" stop-color="rgb(65.937805%, 65.386963%, 65.779114%)" stop-opacity="1"/>
<stop offset="0.375" stop-color="rgb(65.736389%, 65.202332%, 65.594482%)" stop-opacity="1"/>
<stop offset="0.40625" stop-color="rgb(65.533447%, 65.0177%, 65.409851%)" stop-opacity="1"/>
<stop offset="0.4375" stop-color="rgb(65.332031%, 64.833069%, 65.22522%)" stop-opacity="1"/>
<stop offset="0.46875" stop-color="rgb(65.129089%, 64.648438%, 65.040588%)" stop-opacity="1"/>
<stop offset="0.5" stop-color="rgb(64.927673%, 64.465332%, 64.857483%)" stop-opacity="1"/>
<stop offset="0.53125" stop-color="rgb(64.726257%, 64.280701%, 64.672852%)" stop-opacity="1"/>
<stop offset="0.5625" stop-color="rgb(64.523315%, 64.096069%, 64.48822%)" stop-opacity="1"/>
<stop offset="0.59375" stop-color="rgb(64.321899%, 63.911438%, 64.303589%)" stop-opacity="1"/>
<stop offset="0.625" stop-color="rgb(64.118958%, 63.726807%, 64.118958%)" stop-opacity="1"/>
<stop offset="0.65625" stop-color="rgb(63.917542%, 63.542175%, 63.934326%)" stop-opacity="1"/>
<stop offset="0.6875" stop-color="rgb(63.716125%, 63.357544%, 63.749695%)" stop-opacity="1"/>
<stop offset="0.71875" stop-color="rgb(63.513184%, 63.172913%, 63.565063%)" stop-opacity="1"/>
<stop offset="0.75" stop-color="rgb(63.311768%, 62.988281%, 63.381958%)" stop-opacity="1"/>
<stop offset="0.78125" stop-color="rgb(63.108826%, 62.805176%, 63.197327%)" stop-opacity="1"/>
<stop offset="0.8125" stop-color="rgb(62.90741%, 62.620544%, 63.012695%)" stop-opacity="1"/>
<stop offset="0.84375" stop-color="rgb(62.705994%, 62.435913%, 62.828064%)" stop-opacity="1"/>
<stop offset="0.875" stop-color="rgb(62.503052%, 62.251282%, 62.643433%)" stop-opacity="1"/>
<stop offset="0.90625" stop-color="rgb(62.301636%, 62.06665%, 62.458801%)" stop-opacity="1"/>
<stop offset="0.9375" stop-color="rgb(62.098694%, 61.882019%, 62.27417%)" stop-opacity="1"/>
<stop offset="0.96875" stop-color="rgb(61.897278%, 61.697388%, 62.089539%)" stop-opacity="1"/>
<stop offset="1" stop-color="rgb(61.695862%, 61.512756%, 61.904907%)" stop-opacity="1"/>
</linearGradient>
<clipPath id="clip-10">
<path clip-rule="nonzero" d="M 1984 1291 L 2666 1291 L 2666 1726 L 1984 1726 Z M 1984 1291 "/>
</clipPath>
<clipPath id="clip-11">
<path clip-rule="evenodd" d="M 2015.058594 1291.300781 L 1984.859375 1580.820312 L 2269.5 1725.648438 L 2665.289062 1498.898438 C 2409.878906 1330.671875 2114.320312 1297.710938 2015.058594 1291.300781 "/>
</clipPath>
<linearGradient id="linear-pattern-5" gradientUnits="userSpaceOnUse" x1="0.0998017" y1="0" x2="0.900187" y2="0" gradientTransform="matrix(-0.00002372, -542.676, 542.676, -0.00002372, 2325.07, 1779.81)">
<stop offset="0" stop-color="rgb(67.726135%, 67.021179%, 67.41333%)" stop-opacity="1"/>
<stop offset="0.03125" stop-color="rgb(67.61322%, 66.917419%, 67.30957%)" stop-opacity="1"/>
<stop offset="0.0625" stop-color="rgb(67.38739%, 66.711426%, 67.103577%)" stop-opacity="1"/>
<stop offset="0.09375" stop-color="rgb(67.163086%, 66.505432%, 66.897583%)" stop-opacity="1"/>
<stop offset="0.125" stop-color="rgb(66.937256%, 66.299438%, 66.691589%)" stop-opacity="1"/>
<stop offset="0.15625" stop-color="rgb(66.711426%, 66.093445%, 66.485596%)" stop-opacity="1"/>
<stop offset="0.1875" stop-color="rgb(66.485596%, 65.887451%, 66.279602%)" stop-opacity="1"/>
<stop offset="0.21875" stop-color="rgb(66.259766%, 65.681458%, 66.073608%)" stop-opacity="1"/>
<stop offset="0.25" stop-color="rgb(66.033936%, 65.475464%, 65.867615%)" stop-opacity="1"/>
<stop offset="0.28125" stop-color="rgb(65.808105%, 65.26947%, 65.661621%)" stop-opacity="1"/>
<stop offset="0.3125" stop-color="rgb(65.583801%, 65.063477%, 65.455627%)" stop-opacity="1"/>
<stop offset="0.34375" stop-color="rgb(65.357971%, 64.857483%, 65.249634%)" stop-opacity="1"/>
<stop offset="0.375" stop-color="rgb(65.132141%, 64.651489%, 65.04364%)" stop-opacity="1"/>
<stop offset="0.40625" stop-color="rgb(64.906311%, 64.445496%, 64.837646%)" stop-opacity="1"/>
<stop offset="0.4375" stop-color="rgb(64.680481%, 64.239502%, 64.631653%)" stop-opacity="1"/>
<stop offset="0.46875" stop-color="rgb(64.454651%, 64.033508%, 64.425659%)" stop-opacity="1"/>
<stop offset="0.5" stop-color="rgb(64.230347%, 63.827515%, 64.219666%)" stop-opacity="1"/>
<stop offset="0.53125" stop-color="rgb(64.004517%, 63.621521%, 64.013672%)" stop-opacity="1"/>
<stop offset="0.5625" stop-color="rgb(63.778687%, 63.415527%, 63.807678%)" stop-opacity="1"/>
<stop offset="0.59375" stop-color="rgb(63.552856%, 63.209534%, 63.601685%)" stop-opacity="1"/>
<stop offset="0.625" stop-color="rgb(63.327026%, 63.00354%, 63.395691%)" stop-opacity="1"/>
<stop offset="0.65625" stop-color="rgb(63.101196%, 62.797546%, 63.189697%)" stop-opacity="1"/>
<stop offset="0.6875" stop-color="rgb(62.875366%, 62.591553%, 62.983704%)" stop-opacity="1"/>
<stop offset="0.71875" stop-color="rgb(62.651062%, 62.385559%, 62.77771%)" stop-opacity="1"/>
<stop offset="0.75" stop-color="rgb(62.425232%, 62.179565%, 62.571716%)" stop-opacity="1"/>
<stop offset="0.78125" stop-color="rgb(62.199402%, 61.973572%, 62.365723%)" stop-opacity="1"/>
<stop offset="0.8125" stop-color="rgb(61.973572%, 61.767578%, 62.159729%)" stop-opacity="1"/>
<stop offset="0.84375" stop-color="rgb(61.747742%, 61.561584%, 61.953735%)" stop-opacity="1"/>
<stop offset="0.875" stop-color="rgb(61.521912%, 61.355591%, 61.747742%)" stop-opacity="1"/>
<stop offset="0.90625" stop-color="rgb(61.296082%, 61.149597%, 61.541748%)" stop-opacity="1"/>
<stop offset="0.9375" stop-color="rgb(61.071777%, 60.943604%, 61.335754%)" stop-opacity="1"/>
<stop offset="0.96875" stop-color="rgb(60.845947%, 60.73761%, 61.129761%)" stop-opacity="1"/>
<stop offset="1" stop-color="rgb(60.620117%, 60.531616%, 60.923767%)" stop-opacity="1"/>
</linearGradient>
<clipPath id="clip-12">
<path clip-rule="nonzero" d="M 2185 1593 L 3177 1593 L 3177 2223 L 2185 2223 Z M 2185 1593 "/>
</clipPath>
<clipPath id="clip-13">
<path clip-rule="evenodd" d="M 2676.789062 1593.71875 L 2185.261719 1875.308594 L 2411.640625 2222.800781 L 3176.910156 1998.199219 C 3077.679688 1895.109375 2846.648438 1667.308594 2676.789062 1593.71875 "/>
</clipPath>
<linearGradient id="linear-pattern-6" gradientUnits="userSpaceOnUse" x1="0.0643853" y1="0" x2="0.935616" y2="0" gradientTransform="matrix(-0.00003156, -722.059, 722.059, -0.00003156, 2681.09, 2269.29)">
<stop offset="0" stop-color="rgb(68.04657%, 67.312622%, 67.704773%)" stop-opacity="1"/>
<stop offset="0.03125" stop-color="rgb(67.922974%, 67.199707%, 67.591858%)" stop-opacity="1"/>
<stop offset="0.0625" stop-color="rgb(67.677307%, 66.975403%, 67.367554%)" stop-opacity="1"/>
<stop offset="0.09375" stop-color="rgb(67.431641%, 66.751099%, 67.14325%)" stop-opacity="1"/>
<stop offset="0.125" stop-color="rgb(67.185974%, 66.526794%, 66.918945%)" stop-opacity="1"/>
<stop offset="0.15625" stop-color="rgb(66.940308%, 66.30249%, 66.694641%)" stop-opacity="1"/>
<stop offset="0.1875" stop-color="rgb(66.694641%, 66.078186%, 66.470337%)" stop-opacity="1"/>
<stop offset="0.21875" stop-color="rgb(66.448975%, 65.853882%, 66.246033%)" stop-opacity="1"/>
<stop offset="0.25" stop-color="rgb(66.203308%, 65.629578%, 66.021729%)" stop-opacity="1"/>
<stop offset="0.28125" stop-color="rgb(65.957642%, 65.405273%, 65.797424%)" stop-opacity="1"/>
<stop offset="0.3125" stop-color="rgb(65.711975%, 65.180969%, 65.57312%)" stop-opacity="1"/>
<stop offset="0.34375" stop-color="rgb(65.466309%, 64.956665%, 65.348816%)" stop-opacity="1"/>
<stop offset="0.375" stop-color="rgb(65.220642%, 64.732361%, 65.124512%)" stop-opacity="1"/>
<stop offset="0.40625" stop-color="rgb(64.974976%, 64.508057%, 64.900208%)" stop-opacity="1"/>
<stop offset="0.4375" stop-color="rgb(64.730835%, 64.283752%, 64.677429%)" stop-opacity="1"/>
<stop offset="0.46875" stop-color="rgb(64.485168%, 64.060974%, 64.453125%)" stop-opacity="1"/>
<stop offset="0.5" stop-color="rgb(64.239502%, 63.83667%, 64.228821%)" stop-opacity="1"/>
<stop offset="0.53125" stop-color="rgb(63.993835%, 63.612366%, 64.004517%)" stop-opacity="1"/>
<stop offset="0.5625" stop-color="rgb(63.748169%, 63.388062%, 63.780212%)" stop-opacity="1"/>
<stop offset="0.59375" stop-color="rgb(63.502502%, 63.163757%, 63.555908%)" stop-opacity="1"/>
<stop offset="0.625" stop-color="rgb(63.256836%, 62.939453%, 63.331604%)" stop-opacity="1"/>
<stop offset="0.65625" stop-color="rgb(63.011169%, 62.715149%, 63.1073%)" stop-opacity="1"/>
<stop offset="0.6875" stop-color="rgb(62.765503%, 62.490845%, 62.882996%)" stop-opacity="1"/>
<stop offset="0.71875" stop-color="rgb(62.519836%, 62.266541%, 62.658691%)" stop-opacity="1"/>
<stop offset="0.75" stop-color="rgb(62.27417%, 62.042236%, 62.434387%)" stop-opacity="1"/>
<stop offset="0.78125" stop-color="rgb(62.028503%, 61.817932%, 62.210083%)" stop-opacity="1"/>
<stop offset="0.8125" stop-color="rgb(61.782837%, 61.593628%, 61.985779%)" stop-opacity="1"/>
<stop offset="0.84375" stop-color="rgb(61.53717%, 61.369324%, 61.761475%)" stop-opacity="1"/>
<stop offset="0.875" stop-color="rgb(61.291504%, 61.14502%, 61.53717%)" stop-opacity="1"/>
<stop offset="0.90625" stop-color="rgb(61.045837%, 60.920715%, 61.312866%)" stop-opacity="1"/>
<stop offset="0.9375" stop-color="rgb(60.801697%, 60.696411%, 61.088562%)" stop-opacity="1"/>
<stop offset="0.96875" stop-color="rgb(60.55603%, 60.472107%, 60.865784%)" stop-opacity="1"/>
<stop offset="1" stop-color="rgb(60.310364%, 60.249329%, 60.641479%)" stop-opacity="1"/>
</linearGradient>
<clipPath id="clip-14">
<path clip-rule="nonzero" d="M 881 1658 L 2448 1658 L 2448 2437 L 881 2437 Z M 881 1658 "/>
</clipPath>
<clipPath id="clip-15">
<path clip-rule="evenodd" d="M 2355.800781 2298.230469 L 2086.140625 1884.289062 C 2072.351562 1863.121094 2079.179688 1834.671875 2101.109375 1822.121094 L 2178.25 1777.941406 L 1945.570312 1659.539062 C 1760.660156 1823.25 1524.070312 1782.488281 1358.800781 1658.378906 L 1123.789062 1777.96875 L 1200.941406 1822.171875 C 1222.878906 1834.730469 1229.699219 1863.171875 1215.929688 1884.339844 L 946.273438 2298.261719 C 929.164062 2324.519531 905.628906 2318.949219 881.515625 2311.890625 C 890.59375 2353.199219 898.707031 2394.859375 905.785156 2436.519531 L 2427.878906 2436.519531 C 2434.019531 2385.589844 2440.71875 2341.148438 2447.019531 2304.058594 C 2417.238281 2312.808594 2378.078125 2332.460938 2355.800781 2298.230469 "/>
</clipPath>
<linearGradient id="linear-pattern-7" gradientUnits="userSpaceOnUse" x1="0.0700795" y1="0" x2="0.929927" y2="0" gradientTransform="matrix(-0.00003956, -904.974, 904.974, -0.00003956, 1664.27, 2499.94)">
<stop offset="0" stop-color="rgb(89.08844%, 89.425659%, 89.060974%)" stop-opacity="1"/>
<stop offset="0.03125" stop-color="rgb(88.951111%, 89.277649%, 88.919067%)" stop-opacity="1"/>
<stop offset="0.0625" stop-color="rgb(88.677979%, 88.983154%, 88.633728%)" stop-opacity="1"/>
<stop offset="0.09375" stop-color="rgb(88.40332%, 88.687134%, 88.349915%)" stop-opacity="1"/>
<stop offset="0.125" stop-color="rgb(88.128662%, 88.392639%, 88.064575%)" stop-opacity="1"/>
<stop offset="0.15625" stop-color="rgb(87.85553%, 88.098145%, 87.780762%)" stop-opacity="1"/>
<stop offset="0.1875" stop-color="rgb(87.580872%, 87.802124%, 87.495422%)" stop-opacity="1"/>
<stop offset="0.21875" stop-color="rgb(87.307739%, 87.507629%, 87.211609%)" stop-opacity="1"/>
<stop offset="0.25" stop-color="rgb(87.033081%, 87.213135%, 86.92627%)" stop-opacity="1"/>
<stop offset="0.28125" stop-color="rgb(86.759949%, 86.917114%, 86.642456%)" stop-opacity="1"/>
<stop offset="0.3125" stop-color="rgb(86.485291%, 86.62262%, 86.358643%)" stop-opacity="1"/>
<stop offset="0.34375" stop-color="rgb(86.212158%, 86.328125%, 86.073303%)" stop-opacity="1"/>
<stop offset="0.375" stop-color="rgb(85.9375%, 86.032104%, 85.78949%)" stop-opacity="1"/>
<stop offset="0.40625" stop-color="rgb(85.664368%, 85.73761%, 85.50415%)" stop-opacity="1"/>
<stop offset="0.4375" stop-color="rgb(85.389709%, 85.441589%, 85.220337%)" stop-opacity="1"/>
<stop offset="0.46875" stop-color="rgb(85.115051%, 85.147095%, 84.934998%)" stop-opacity="1"/>
<stop offset="0.5" stop-color="rgb(84.841919%, 84.8526%, 84.651184%)" stop-opacity="1"/>
<stop offset="0.53125" stop-color="rgb(84.567261%, 84.55658%, 84.365845%)" stop-opacity="1"/>
<stop offset="0.5625" stop-color="rgb(84.294128%, 84.262085%, 84.082031%)" stop-opacity="1"/>
<stop offset="0.59375" stop-color="rgb(84.01947%, 83.96759%, 83.796692%)" stop-opacity="1"/>
<stop offset="0.625" stop-color="rgb(83.746338%, 83.67157%, 83.512878%)" stop-opacity="1"/>
<stop offset="0.65625" stop-color="rgb(83.47168%, 83.377075%, 83.229065%)" stop-opacity="1"/>
<stop offset="0.6875" stop-color="rgb(83.198547%, 83.082581%, 82.943726%)" stop-opacity="1"/>
<stop offset="0.71875" stop-color="rgb(82.923889%, 82.78656%, 82.659912%)" stop-opacity="1"/>
<stop offset="0.75" stop-color="rgb(82.649231%, 82.492065%, 82.374573%)" stop-opacity="1"/>
<stop offset="0.78125" stop-color="rgb(82.376099%, 82.196045%, 82.090759%)" stop-opacity="1"/>
<stop offset="0.8125" stop-color="rgb(82.10144%, 81.90155%, 81.80542%)" stop-opacity="1"/>
<stop offset="0.84375" stop-color="rgb(81.828308%, 81.607056%, 81.521606%)" stop-opacity="1"/>
<stop offset="0.875" stop-color="rgb(81.55365%, 81.311035%, 81.236267%)" stop-opacity="1"/>
<stop offset="0.90625" stop-color="rgb(81.280518%, 81.016541%, 80.952454%)" stop-opacity="1"/>
<stop offset="0.9375" stop-color="rgb(81.005859%, 80.722046%, 80.667114%)" stop-opacity="1"/>
<stop offset="0.96875" stop-color="rgb(80.732727%, 80.426025%, 80.383301%)" stop-opacity="1"/>
<stop offset="1" stop-color="rgb(80.458069%, 80.131531%, 80.099487%)" stop-opacity="1"/>
</linearGradient>
<clipPath id="clip-16">
<path clip-rule="nonzero" d="M 636 1291 L 1318 1291 L 1318 1726 L 636 1726 Z M 636 1291 "/>
</clipPath>
<clipPath id="clip-17">
<path clip-rule="evenodd" d="M 1032.558594 1725.699219 L 1317.140625 1580.871094 L 1285.859375 1291.429688 C 1185.488281 1297.988281 891.183594 1331.320312 636.75 1498.949219 L 1032.558594 1725.699219 "/>
</clipPath>
<linearGradient id="linear-pattern-8" gradientUnits="userSpaceOnUse" x1="0.0997355" y1="0" x2="0.900182" y2="0" gradientTransform="matrix(-0.00002371, -542.535, 542.535, -0.00002371, 976.946, 1779.81)">
<stop offset="0" stop-color="rgb(67.727661%, 67.021179%, 67.41333%)" stop-opacity="1"/>
<stop offset="0.03125" stop-color="rgb(67.614746%, 66.917419%, 67.30957%)" stop-opacity="1"/>
<stop offset="0.0625" stop-color="rgb(67.388916%, 66.711426%, 67.103577%)" stop-opacity="1"/>
<stop offset="0.09375" stop-color="rgb(67.163086%, 66.505432%, 66.897583%)" stop-opacity="1"/>
<stop offset="0.125" stop-color="rgb(66.937256%, 66.299438%, 66.691589%)" stop-opacity="1"/>
<stop offset="0.15625" stop-color="rgb(66.711426%, 66.093445%, 66.485596%)" stop-opacity="1"/>
<stop offset="0.1875" stop-color="rgb(66.485596%, 65.887451%, 66.279602%)" stop-opacity="1"/>
<stop offset="0.21875" stop-color="rgb(66.259766%, 65.681458%, 66.073608%)" stop-opacity="1"/>
<stop offset="0.25" stop-color="rgb(66.035461%, 65.475464%, 65.867615%)" stop-opacity="1"/>
<stop offset="0.28125" stop-color="rgb(65.809631%, 65.26947%, 65.661621%)" stop-opacity="1"/>
<stop offset="0.3125" stop-color="rgb(65.583801%, 65.063477%, 65.455627%)" stop-opacity="1"/>
<stop offset="0.34375" stop-color="rgb(65.357971%, 64.857483%, 65.249634%)" stop-opacity="1"/>
<stop offset="0.375" stop-color="rgb(65.132141%, 64.651489%, 65.04364%)" stop-opacity="1"/>
<stop offset="0.40625" stop-color="rgb(64.906311%, 64.445496%, 64.837646%)" stop-opacity="1"/>
<stop offset="0.4375" stop-color="rgb(64.680481%, 64.239502%, 64.631653%)" stop-opacity="1"/>
<stop offset="0.46875" stop-color="rgb(64.456177%, 64.033508%, 64.425659%)" stop-opacity="1"/>
<stop offset="0.5" stop-color="rgb(64.230347%, 63.827515%, 64.219666%)" stop-opacity="1"/>
<stop offset="0.53125" stop-color="rgb(64.004517%, 63.621521%, 64.013672%)" stop-opacity="1"/>
<stop offset="0.5625" stop-color="rgb(63.778687%, 63.415527%, 63.807678%)" stop-opacity="1"/>
<stop offset="0.59375" stop-color="rgb(63.552856%, 63.209534%, 63.601685%)" stop-opacity="1"/>
<stop offset="0.625" stop-color="rgb(63.327026%, 63.00354%, 63.395691%)" stop-opacity="1"/>
<stop offset="0.65625" stop-color="rgb(63.101196%, 62.797546%, 63.189697%)" stop-opacity="1"/>
<stop offset="0.6875" stop-color="rgb(62.876892%, 62.591553%, 62.983704%)" stop-opacity="1"/>
<stop offset="0.71875" stop-color="rgb(62.651062%, 62.385559%, 62.77771%)" stop-opacity="1"/>
<stop offset="0.75" stop-color="rgb(62.425232%, 62.179565%, 62.571716%)" stop-opacity="1"/>
<stop offset="0.78125" stop-color="rgb(62.199402%, 61.973572%, 62.365723%)" stop-opacity="1"/>
<stop offset="0.8125" stop-color="rgb(61.973572%, 61.767578%, 62.159729%)" stop-opacity="1"/>
<stop offset="0.84375" stop-color="rgb(61.747742%, 61.561584%, 61.953735%)" stop-opacity="1"/>
<stop offset="0.875" stop-color="rgb(61.521912%, 61.355591%, 61.747742%)" stop-opacity="1"/>
<stop offset="0.90625" stop-color="rgb(61.297607%, 61.149597%, 61.541748%)" stop-opacity="1"/>
<stop offset="0.9375" stop-color="rgb(61.071777%, 60.943604%, 61.335754%)" stop-opacity="1"/>
<stop offset="0.96875" stop-color="rgb(60.845947%, 60.73761%, 61.129761%)" stop-opacity="1"/>
<stop offset="1" stop-color="rgb(60.620117%, 60.531616%, 60.923767%)" stop-opacity="1"/>
</linearGradient>
<clipPath id="clip-18">
<path clip-rule="nonzero" d="M 125 1593 L 1117 1593 L 1117 2223 L 125 2223 Z M 125 1593 "/>
</clipPath>
<clipPath id="clip-19">
<path clip-rule="evenodd" d="M 1116.820312 1875.308594 L 625.257812 1593.738281 C 455.296875 1667.390625 224.332031 1895.160156 125.113281 1998.179688 L 890.433594 2222.800781 L 1116.820312 1875.308594 "/>
</clipPath>
<linearGradient id="linear-pattern-9" gradientUnits="userSpaceOnUse" x1="0.0643741" y1="0" x2="0.935613" y2="0" gradientTransform="matrix(-0.00003156, -722.029, 722.029, -0.00003156, 620.965, 2269.28)">
<stop offset="0" stop-color="rgb(68.04657%, 67.312622%, 67.704773%)" stop-opacity="1"/>
<stop offset="0.03125" stop-color="rgb(67.922974%, 67.199707%, 67.591858%)" stop-opacity="1"/>
<stop offset="0.0625" stop-color="rgb(67.677307%, 66.975403%, 67.367554%)" stop-opacity="1"/>
<stop offset="0.09375" stop-color="rgb(67.431641%, 66.751099%, 67.14325%)" stop-opacity="1"/>
<stop offset="0.125" stop-color="rgb(67.185974%, 66.526794%, 66.918945%)" stop-opacity="1"/>
<stop offset="0.15625" stop-color="rgb(66.940308%, 66.30249%, 66.694641%)" stop-opacity="1"/>
<stop offset="0.1875" stop-color="rgb(66.694641%, 66.078186%, 66.470337%)" stop-opacity="1"/>
<stop offset="0.21875" stop-color="rgb(66.448975%, 65.853882%, 66.246033%)" stop-opacity="1"/>
<stop offset="0.25" stop-color="rgb(66.203308%, 65.629578%, 66.021729%)" stop-opacity="1"/>
<stop offset="0.28125" stop-color="rgb(65.957642%, 65.405273%, 65.797424%)" stop-opacity="1"/>
<stop offset="0.3125" stop-color="rgb(65.711975%, 65.180969%, 65.57312%)" stop-opacity="1"/>
<stop offset="0.34375" stop-color="rgb(65.466309%, 64.956665%, 65.348816%)" stop-opacity="1"/>
<stop offset="0.375" stop-color="rgb(65.220642%, 64.732361%, 65.124512%)" stop-opacity="1"/>
<stop offset="0.40625" stop-color="rgb(64.974976%, 64.508057%, 64.901733%)" stop-opacity="1"/>
<stop offset="0.4375" stop-color="rgb(64.730835%, 64.285278%, 64.677429%)" stop-opacity="1"/>
<stop offset="0.46875" stop-color="rgb(64.485168%, 64.060974%, 64.453125%)" stop-opacity="1"/>
<stop offset="0.5" stop-color="rgb(64.239502%, 63.83667%, 64.228821%)" stop-opacity="1"/>
<stop offset="0.53125" stop-color="rgb(63.993835%, 63.612366%, 64.004517%)" stop-opacity="1"/>
<stop offset="0.5625" stop-color="rgb(63.748169%, 63.388062%, 63.780212%)" stop-opacity="1"/>
<stop offset="0.59375" stop-color="rgb(63.502502%, 63.163757%, 63.555908%)" stop-opacity="1"/>
<stop offset="0.625" stop-color="rgb(63.256836%, 62.939453%, 63.331604%)" stop-opacity="1"/>
<stop offset="0.65625" stop-color="rgb(63.011169%, 62.715149%, 63.1073%)" stop-opacity="1"/>
<stop offset="0.6875" stop-color="rgb(62.765503%, 62.490845%, 62.882996%)" stop-opacity="1"/>
<stop offset="0.71875" stop-color="rgb(62.519836%, 62.266541%, 62.658691%)" stop-opacity="1"/>
<stop offset="0.75" stop-color="rgb(62.27417%, 62.042236%, 62.434387%)" stop-opacity="1"/>
<stop offset="0.78125" stop-color="rgb(62.028503%, 61.817932%, 62.210083%)" stop-opacity="1"/>
<stop offset="0.8125" stop-color="rgb(61.782837%, 61.593628%, 61.985779%)" stop-opacity="1"/>
<stop offset="0.84375" stop-color="rgb(61.53717%, 61.369324%, 61.761475%)" stop-opacity="1"/>
<stop offset="0.875" stop-color="rgb(61.291504%, 61.14502%, 61.53717%)" stop-opacity="1"/>
<stop offset="0.90625" stop-color="rgb(61.045837%, 60.920715%, 61.312866%)" stop-opacity="1"/>
<stop offset="0.9375" stop-color="rgb(60.801697%, 60.696411%, 61.088562%)" stop-opacity="1"/>
<stop offset="0.96875" stop-color="rgb(60.55603%, 60.473633%, 60.865784%)" stop-opacity="1"/>
<stop offset="1" stop-color="rgb(60.310364%, 60.249329%, 60.641479%)" stop-opacity="1"/>
</linearGradient>
</defs>
<path fill-rule="evenodd" fill="rgb(0%, 0%, 0.784302%)" fill-opacity="1" d="M 125.113281 1998.179688 L 833.109375 2205.960938 L 834.277344 2206.300781 L 890.433594 2222.800781 L 1116.820312 1875.308594 L 625.257812 1593.738281 C 455.296875 1667.390625 224.332031 1895.160156 125.113281 1998.179688 Z M 1285.859375 1291.429688 C 1185.488281 1297.988281 891.183594 1331.320312 636.75 1498.949219 L 1032.558594 1725.699219 L 1317.140625 1580.871094 Z M 2185.261719 1875.308594 L 2411.640625 2222.800781 L 3176.910156 1998.199219 C 3077.679688 1895.109375 2846.648438 1667.308594 2676.789062 1593.71875 Z M 2269.5 1725.648438 L 2665.289062 1498.898438 C 2409.878906 1330.671875 2114.320312 1297.710938 2015.058594 1291.300781 L 1984.859375 1580.820312 Z M 905.785156 2436.519531 L 2427.878906 2436.519531 C 2434.019531 2385.589844 2440.71875 2341.148438 2447.019531 2304.058594 L 2404.96875 2316.410156 C 2400.949219 2317.640625 2396.78125 2318.191406 2392.648438 2318.191406 C 2378.050781 2318.191406 2364.050781 2310.921875 2355.800781 2298.230469 L 2086.140625 1884.289062 C 2079.519531 1874.128906 2077.390625 1861.75 2080.230469 1849.960938 C 2083.039062 1838.191406 2090.578125 1828.128906 2101.109375 1822.121094 L 2178.25 1777.941406 L 1945.570312 1659.539062 C 1856.03125 1738.78125 1760.191406 1767.75 1669.878906 1767.75 C 1544.988281 1767.75 1430.78125 1712.441406 1358.800781 1658.378906 L 1123.789062 1777.96875 L 1200.941406 1822.171875 C 1211.449219 1828.191406 1219.011719 1838.269531 1221.839844 1850.011719 C 1224.660156 1861.78125 1222.519531 1874.179688 1215.929688 1884.339844 L 946.273438 2298.261719 C 938.027344 2310.921875 924.015625 2318.191406 909.4375 2318.191406 C 905.328125 2318.191406 901.164062 2317.640625 897.054688 2316.429688 L 881.515625 2311.890625 C 890.59375 2353.199219 898.707031 2394.859375 905.785156 2436.519531 Z M 1169.699219 853.679688 L 1607.078125 1050.261719 L 1607.078125 466.121094 L 1169.699219 662.699219 Z M 1695.050781 466.128906 L 1695.050781 1050.230469 L 2132.390625 853.679688 L 2132.390625 662.699219 Z M 1191.660156 556.390625 L 1631.328125 358.78125 C 1640.730469 354.070312 1651.761719 352.769531 1662.398438 355.648438 L 1662.730469 355.71875 L 1663.058594 355.828125 L 1663.710938 356.011719 L 1663.789062 356.039062 L 1664.371094 356.21875 L 1665.03125 356.429688 L 1665.660156 356.660156 L 1665.921875 356.75 L 1666.308594 356.878906 L 1666.941406 357.128906 L 1666.96875 357.140625 L 1667.570312 357.378906 L 1668.019531 357.558594 L 1668.199219 357.640625 L 1668.859375 357.921875 L 1669.070312 358.019531 L 2110.429688 556.421875 L 2110.429688 477.851562 C 2110.429688 262.878906 1935.53125 87.980469 1720.550781 87.980469 L 1695.019531 87.980469 L 1695.019531 252.460938 C 1695.050781 276.730469 1675.351562 296.441406 1651.03125 296.441406 C 1626.738281 296.441406 1607.039062 276.761719 1607.039062 252.460938 L 1607.039062 87.980469 L 1581.5 87.980469 C 1366.550781 87.980469 1191.660156 262.851562 1191.660156 477.851562 Z M 1379.421875 1338.359375 L 1405.871094 1583.261719 C 1462.941406 1626.289062 1691.96875 1776.261719 1895.871094 1585.890625 L 1921.660156 1338.96875 L 1673.039062 1482.511719 C 1666.230469 1486.421875 1658.660156 1488.390625 1651.03125 1488.390625 C 1643.449219 1488.390625 1635.839844 1486.421875 1629.03125 1482.511719 Z M 1328.089844 1207.171875 C 1329.171875 1207.730469 1330.230469 1208.351562 1331.269531 1209.011719 L 1651.03125 1393.628906 L 1950.398438 1220.800781 C 1951.710938 1219.929688 1953.078125 1219.148438 1954.5 1218.421875 L 1970.441406 1209.21875 C 1971.78125 1208.339844 1973.171875 1207.539062 1974.621094 1206.800781 L 2110.410156 1128.410156 L 2110.410156 959.96875 L 1669.960938 1157.960938 C 1668.679688 1158.558594 1667.359375 1159.121094 1666.019531 1159.589844 L 1666.019531 1159.601562 L 1665.761719 1159.691406 L 1665.289062 1159.851562 L 1665.179688 1159.878906 L 1663.519531 1160.421875 L 1663.410156 1160.460938 L 1663.238281 1160.5 L 1663.03125 1160.558594 L 1662.949219 1160.589844 L 1662.398438 1160.730469 L 1662.269531 1160.769531 L 1662.109375 1160.808594 L 1661.890625 1160.878906 L 1661.828125 1160.878906 L 1661.550781 1160.941406 L 1661.511719 1160.96875 L 1661.261719 1161.019531 L 1661.128906 1161.058594 L 1660.980469 1161.089844 L 1660.738281 1161.148438 L 1660.691406 1161.148438 L 1660.421875 1161.21875 L 1660.359375 1161.230469 L 1660.140625 1161.269531 L 1659.96875 1161.308594 L 1659.851562 1161.339844 L 1659.589844 1161.390625 L 1659.558594 1161.390625 L 1659 1161.488281 L 1658.828125 1161.53125 L 1658.71875 1161.550781 L 1658.429688 1161.601562 L 1658.160156 1161.648438 L 1658.050781 1161.660156 L 1657.859375 1161.691406 L 1657.660156 1161.730469 L 1657.578125 1161.738281 L 1657.289062 1161.78125 L 1657.28125 1161.78125 L 1657.011719 1161.820312 L 1656.878906 1161.828125 L 1656.730469 1161.851562 L 1656.5 1161.890625 L 1656.449219 1161.890625 L 1656.160156 1161.929688 L 1656.109375 1161.929688 L 1655.890625 1161.96875 L 1655.710938 1161.980469 L 1655.578125 1161.988281 L 1655.328125 1162.019531 L 1655.308594 1162.019531 L 1655.03125 1162.039062 L 1654.941406 1162.058594 L 1654.738281 1162.070312 L 1654.558594 1162.078125 L 1654.449219 1162.101562 L 1654.171875 1162.109375 L 1654.148438 1162.109375 L 1653.890625 1162.140625 L 1653.769531 1162.148438 L 1653.601562 1162.148438 L 1653.378906 1162.160156 L 1653.320312 1162.160156 L 1653.039062 1162.179688 L 1653 1162.179688 L 1652.761719 1162.199219 L 1652.46875 1162.199219 L 1652.210938 1162.21875 L 1651.808594 1162.21875 L 1651.628906 1162.230469 L 1650.460938 1162.230469 L 1650.28125 1162.21875 L 1649.878906 1162.21875 L 1649.589844 1162.199219 L 1649.308594 1162.199219 L 1649.019531 1162.179688 L 1648.738281 1162.160156 L 1648.699219 1162.160156 L 1648.441406 1162.148438 L 1648.160156 1162.140625 L 1647.929688 1162.109375 L 1647.871094 1162.109375 L 1647.589844 1162.078125 L 1647.300781 1162.070312 L 1647.140625 1162.058594 L 1647.011719 1162.039062 L 1646.71875 1162.019531 L 1646.441406 1161.980469 L 1646.359375 1161.980469 L 1646.148438 1161.949219 L 1645.871094 1161.929688 L 1645.589844 1161.890625 L 1645.578125 1161.890625 L 1644.808594 1161.78125 L 1644.71875 1161.769531 L 1644.160156 1161.691406 L 1644.050781 1161.660156 L 1643.871094 1161.640625 L 1643.300781 1161.550781 L 1643.28125 1161.53125 L 1643.019531 1161.488281 L 1642.730469 1161.429688 L 1642.519531 1161.390625 L 1642.449219 1161.390625 L 1642.160156 1161.320312 L 1641.890625 1161.261719 L 1641.75 1161.230469 L 1641.601562 1161.199219 L 1641.320312 1161.140625 L 1641.03125 1161.070312 L 1640.988281 1161.058594 L 1640.238281 1160.878906 L 1640.191406 1160.859375 L 1638.789062 1160.480469 L 1638.75 1160.46875 L 1638.5 1160.398438 L 1638.230469 1160.308594 L 1636.839844 1159.859375 L 1636.570312 1159.769531 L 1636.53125 1159.761719 L 1636.289062 1159.679688 L 1636.019531 1159.578125 L 1635.789062 1159.5 L 1635.738281 1159.46875 L 1635.460938 1159.371094 L 1635.191406 1159.261719 L 1635.070312 1159.21875 L 1634.929688 1159.160156 L 1634.648438 1159.050781 L 1634.371094 1158.949219 L 1634.351562 1158.929688 L 1634.101562 1158.828125 L 1633.839844 1158.710938 L 1633.640625 1158.628906 L 1633.558594 1158.589844 L 1633.28125 1158.46875 L 1633.019531 1158.351562 L 1632.929688 1158.308594 L 1632.210938 1157.988281 L 1191.671875 959.980469 L 1191.671875 1128.398438 Z M 2467.121094 2524.480469 L 869.699219 2524.480469 L 868.332031 2524.511719 C 863.09375 2524.511719 858.011719 2523.539062 853.269531 2521.800781 L 853.046875 2521.71875 L 852.269531 2521.429688 L 852.140625 2521.378906 L 851.273438 2521.011719 L 851.261719 2521.011719 L 850.378906 2520.621094 L 850.289062 2520.589844 L 849.511719 2520.230469 L 849.316406 2520.148438 L 848.644531 2519.808594 L 848.371094 2519.667969 L 847.792969 2519.359375 L 847.425781 2519.179688 L 846.964844 2518.910156 L 846.125 2518.441406 L 845.585938 2518.101562 L 845.3125 2517.941406 L 844.691406 2517.550781 L 844.507812 2517.441406 L 843.800781 2516.96875 L 843.707031 2516.890625 L 842.921875 2516.371094 L 842.160156 2515.789062 C 841.121094 2515.03125 840.136719 2514.238281 839.191406 2513.371094 L 838.824219 2513.058594 L 838.480469 2512.738281 L 838.046875 2512.320312 L 837.785156 2512.078125 L 837.285156 2511.578125 L 837.101562 2511.398438 L 836.445312 2510.71875 L 835.84375 2510.058594 L 835.789062 2510.011719 L 835.160156 2509.300781 L 835.132812 2509.269531 L 834.527344 2508.558594 L 834.449219 2508.460938 L 833.925781 2507.828125 L 833.347656 2507.070312 L 833.148438 2506.800781 L 832.769531 2506.28125 L 832.519531 2505.960938 L 832.203125 2505.488281 L 831.664062 2504.699219 L 831.335938 2504.199219 L 831.140625 2503.890625 L 831.074219 2503.78125 C 830.417969 2502.730469 829.789062 2501.628906 829.222656 2500.53125 L 829.222656 2500.5 L 828.789062 2499.628906 L 828.75 2499.558594 L 828.367188 2498.738281 C 826.597656 2494.851562 825.375 2490.699219 824.785156 2486.320312 C 814.226562 2418.421875 800.789062 2350.339844 784.757812 2283.5 L 31.609375 2062.449219 C 17.074219 2058.191406 5.765625 2046.738281 1.65625 2032.191406 C -2.457031 2017.609375 1.207031 2001.980469 11.371094 1990.738281 C 24.464844 1976.269531 302.824219 1670.308594 533.765625 1541.339844 L 533.238281 1541.03125 C 520.433594 1533.699219 512.160156 1520.441406 511.214844 1505.699219 C 510.242188 1490.941406 516.742188 1476.761719 528.496094 1467.828125 C 748.261719 1300.988281 1002.859375 1238.648438 1166.429688 1215.398438 L 1125.71875 1191.898438 C 1112.101562 1184.039062 1103.710938 1169.519531 1103.710938 1153.800781 L 1103.710938 920.210938 C 1090.179688 912.410156 1081.699219 897.929688 1081.699219 882.128906 L 1081.699219 634.238281 C 1081.699219 618.429688 1090.179688 603.96875 1103.699219 596.171875 L 1103.699219 477.851562 C 1103.699219 214.371094 1318.050781 0 1581.5 0 L 1720.550781 0 C 1984.019531 0 2198.371094 214.371094 2198.371094 477.851562 L 2198.371094 596.179688 C 2211.871094 604 2220.300781 618.460938 2220.300781 634.238281 L 2220.300781 882.128906 C 2220.300781 897.929688 2211.839844 912.390625 2198.371094 920.179688 L 2198.371094 1153.808594 C 2198.371094 1169.53125 2189.988281 1184.039062 2176.390625 1191.910156 L 2135.75 1215.359375 C 2299.308594 1238.621094 2553.839844 1300.960938 2773.550781 1467.769531 C 2785.289062 1476.699219 2791.808594 1490.910156 2790.859375 1505.621094 C 2789.890625 1520.378906 2781.621094 1533.621094 2768.800781 1540.96875 L 2768.28125 1541.261719 C 2999.199219 1670.25 3277.558594 1976.21875 3290.640625 1990.691406 C 3300.808594 2001.929688 3304.460938 2017.558594 3300.359375 2032.140625 C 3296.261719 2046.710938 3284.941406 2058.140625 3270.390625 2062.390625 L 2541.320312 2276.378906 C 2531.988281 2325.628906 2520.460938 2396.148438 2510.949219 2483.878906 C 2509.539062 2502.46875 2496.589844 2517.839844 2479.230469 2522.769531 L 2479.148438 2522.800781 L 2478.25 2523.039062 L 2478.101562 2523.089844 L 2477.28125 2523.300781 L 2477.039062 2523.351562 L 2476.28125 2523.511719 L 2475.96875 2523.589844 L 2475.308594 2523.71875 L 2474.890625 2523.800781 L 2474.308594 2523.878906 L 2473.320312 2524.03125 L 2472.710938 2524.109375 L 2472.289062 2524.167969 L 2471.609375 2524.25 C 2470.53125 2524.351562 2469.449219 2524.398438 2468.378906 2524.460938 L 2468.191406 2524.460938 L 2467.171875 2524.480469 L 2467.121094 2524.480469 "/>
<g clip-path="url(#clip-0)">
<g clip-path="url(#clip-1)">
<path fill-rule="nonzero" fill="url(#linear-pattern-0)" d="M 1695.050781 1050.230469 L 2132.390625 1050.230469 L 2132.390625 466.128906 L 1695.050781 466.128906 Z M 1695.050781 1050.230469 "/>
</g>
</g>
<g clip-path="url(#clip-2)">
<g clip-path="url(#clip-3)">
<path fill-rule="nonzero" fill="url(#linear-pattern-1)" d="M 1169.699219 1050.261719 L 1607.078125 1050.261719 L 1607.078125 466.121094 L 1169.699219 466.121094 Z M 1169.699219 1050.261719 "/>
</g>
</g>
<g clip-path="url(#clip-4)">
<g clip-path="url(#clip-5)">
<path fill-rule="nonzero" fill="url(#linear-pattern-2)" d="M 1191.660156 556.421875 L 2110.429688 556.421875 L 2110.429688 87.980469 L 1191.660156 87.980469 Z M 1191.660156 556.421875 "/>
</g>
</g>
<g clip-path="url(#clip-6)">
<g clip-path="url(#clip-7)">
<path fill-rule="nonzero" fill="url(#linear-pattern-3)" d="M 1191.671875 1393.628906 L 2110.410156 1393.628906 L 2110.410156 959.96875 L 1191.671875 959.96875 Z M 1191.671875 1393.628906 "/>
</g>
</g>
<g clip-path="url(#clip-8)">
<g clip-path="url(#clip-9)">
<path fill-rule="nonzero" fill="url(#linear-pattern-4)" d="M 1379.421875 1776.261719 L 1921.660156 1776.261719 L 1921.660156 1338.359375 L 1379.421875 1338.359375 Z M 1379.421875 1776.261719 "/>
</g>
</g>
<g clip-path="url(#clip-10)">
<g clip-path="url(#clip-11)">
<path fill-rule="nonzero" fill="url(#linear-pattern-5)" d="M 1984.859375 1725.648438 L 2665.289062 1725.648438 L 2665.289062 1291.300781 L 1984.859375 1291.300781 Z M 1984.859375 1725.648438 "/>
</g>
</g>
<g clip-path="url(#clip-12)">
<g clip-path="url(#clip-13)">
<path fill-rule="nonzero" fill="url(#linear-pattern-6)" d="M 2185.261719 2222.800781 L 3176.910156 2222.800781 L 3176.910156 1593.71875 L 2185.261719 1593.71875 Z M 2185.261719 2222.800781 "/>
</g>
</g>
<g clip-path="url(#clip-14)">
<g clip-path="url(#clip-15)">
<path fill-rule="nonzero" fill="url(#linear-pattern-7)" d="M 881.515625 2436.519531 L 2447.019531 2436.519531 L 2447.019531 1658.378906 L 881.515625 1658.378906 Z M 881.515625 2436.519531 "/>
</g>
</g>
<g clip-path="url(#clip-16)">
<g clip-path="url(#clip-17)">
<path fill-rule="nonzero" fill="url(#linear-pattern-8)" d="M 636.75 1725.699219 L 1317.140625 1725.699219 L 1317.140625 1291.429688 L 636.75 1291.429688 Z M 636.75 1725.699219 "/>
</g>
</g>
<g clip-path="url(#clip-18)">
<g clip-path="url(#clip-19)">
<path fill-rule="nonzero" fill="url(#linear-pattern-9)" d="M 125.113281 2222.800781 L 1116.820312 2222.800781 L 1116.820312 1593.738281 L 125.113281 1593.738281 Z M 125.113281 2222.800781 "/>
</g>
</g>
</svg>
